<svg width="528" height="61" viewBox="0 0 528 61" fill="none" xmlns="http://www.w3.org/2000/svg">
<path d="M0.494 0.369997H10.58L28.948 49.078H29.112L47.48 0.369997H57.566V59H50.186V10.784H50.022L32.31 59H25.75L8.038 10.784H7.874V59H0.494V0.369997ZM91.5204 27.84C91.5204 23.7947 88.6777 21.772 82.9924 21.772C79.0564 21.772 76.2957 22.4007 74.7104 23.658C73.1251 24.9153 72.2231 27.0747 72.0044 30.136H65.4444C65.6631 25.8173 67.1937 22.4007 70.0364 19.886C72.8791 17.3167 77.1977 16.032 82.9924 16.032C87.4751 16.032 91.1104 17.0707 93.8984 19.148C96.6864 21.1707 98.0804 24.5327 98.0804 29.234V49.57C98.0804 51.21 98.2991 52.4127 98.7364 53.178C99.2284 53.8887 100.185 54.244 101.606 54.244C102.098 54.244 102.508 54.2167 102.836 54.162V58.754C101.524 59.1913 100.24 59.41 98.9824 59.41C96.9051 59.41 95.2651 59.0273 94.0624 58.262C92.9144 57.442 92.0671 55.9387 91.5204 53.752H91.3564C89.9897 55.7747 88.1037 57.36 85.6984 58.508C83.3477 59.6013 80.5051 60.148 77.1704 60.148C72.9611 60.148 69.5991 59.0547 67.0844 56.868C64.6244 54.6813 63.3944 51.8113 63.3944 48.258C63.3944 45.1967 64.1051 42.764 65.5264 40.96C66.9477 39.156 68.8884 37.7893 71.3484 36.86C73.8631 35.876 77.1704 35.0013 81.2704 34.236C83.9491 33.744 85.9717 33.2793 87.3384 32.842C88.7051 32.4047 89.7437 31.8033 90.4544 31.038C91.1651 30.2727 91.5204 29.2067 91.5204 27.84ZM77.8264 54.408C81.9264 54.408 85.2337 53.4513 87.7484 51.538C90.2631 49.57 91.5204 46.6727 91.5204 42.846V35.876C90.4271 36.9693 87.2017 38.0627 81.8444 39.156C77.5804 40.0853 74.5191 41.1787 72.6604 42.436C70.8564 43.6933 69.9544 45.5247 69.9544 47.93C69.9544 52.2487 72.5784 54.408 77.8264 54.408ZM124.383 16.032C125.805 16.032 127.089 16.114 128.237 16.278V22.838H128.073C127.199 22.674 126.351 22.592 125.531 22.592C121.705 22.592 118.589 23.9313 116.183 26.61C113.833 29.2887 112.657 32.6507 112.657 36.696V59H106.097V17.18H112.657V25.462H112.821C114.024 22.4553 115.527 20.132 117.331 18.492C119.19 16.852 121.541 16.032 124.383 16.032ZM142.569 22.92V48.094C142.569 50.062 143.033 51.4287 143.963 52.194C144.892 52.9593 146.423 53.342 148.555 53.342C149.484 53.342 150.222 53.3147 150.769 53.26V59C149.293 59.328 147.653 59.492 145.849 59.492C142.733 59.492 140.3 58.6993 138.551 57.114C136.856 55.5287 136.009 52.7407 136.009 48.75V22.92H129.859V17.18H136.009V3.24H142.569V17.18H150.769V22.92H142.569ZM160.089 9.062C159.105 9.062 158.176 8.70666 157.301 7.996C156.426 7.28533 155.989 6.32866 155.989 5.126C155.989 3.92333 156.426 2.96666 157.301 2.256C158.176 1.54533 159.105 1.19 160.089 1.19C161.128 1.19 162.057 1.54533 162.877 2.256C163.752 2.96666 164.189 3.92333 164.189 5.126C164.189 6.32866 163.752 7.28533 162.877 7.996C162.057 8.70666 161.128 9.062 160.089 9.062ZM163.369 17.18V59H156.809V17.18H163.369ZM192.066 16.032C196.166 16.032 199.528 17.2073 202.152 19.558C204.776 21.854 206.088 25.2707 206.088 29.808V59H199.528V31.448C199.528 28.5507 198.79 26.2273 197.314 24.478C195.838 22.674 193.542 21.772 190.426 21.772C186.763 21.772 183.784 22.8107 181.488 24.888C179.247 26.9653 178.126 29.644 178.126 32.924V59H171.566V17.18H178.126V22.182H178.29C179.602 20.4327 181.406 18.984 183.702 17.836C185.998 16.6333 188.786 16.032 192.066 16.032ZM271.812 15.13C271.812 21.1433 268.778 25.1887 262.71 27.266V27.43C266.045 27.9767 268.778 29.5073 270.91 32.022C273.042 34.482 274.108 37.7893 274.108 41.944C274.108 47.3013 272.331 51.4833 268.778 54.49C265.225 57.4967 260.387 59 254.264 59H229.008V0.369997H252.624C258.583 0.369997 263.257 1.70933 266.646 4.388C270.09 7.012 271.812 10.5927 271.812 15.13ZM253.772 24.888C257.708 24.888 260.469 24.1227 262.054 22.592C263.639 21.0613 264.432 18.8473 264.432 15.95C264.432 13.162 263.612 10.9753 261.972 9.39C260.332 7.75 257.872 6.93 254.592 6.93H236.388V24.888H253.772ZM236.388 52.44H255.002C262.819 52.44 266.728 48.9413 266.728 41.944C266.728 38.7733 265.799 36.2313 263.94 34.318C262.136 32.4047 259.703 31.448 256.642 31.448H236.388V52.44ZM297.442 16.032C298.863 16.032 300.148 16.114 301.296 16.278V22.838H301.132C300.257 22.674 299.41 22.592 298.59 22.592C294.763 22.592 291.647 23.9313 289.242 26.61C286.891 29.2887 285.716 32.6507 285.716 36.696V59H279.156V17.18H285.716V25.462H285.88C287.082 22.4553 288.586 20.132 290.39 18.492C292.248 16.852 294.599 16.032 297.442 16.032ZM309.723 9.062C308.739 9.062 307.81 8.70666 306.935 7.996C306.06 7.28533 305.623 6.32866 305.623 5.126C305.623 3.92333 306.06 2.96666 306.935 2.256C307.81 1.54533 308.739 1.19 309.723 1.19C310.762 1.19 311.691 1.54533 312.511 2.256C313.386 2.96666 313.823 3.92333 313.823 5.126C313.823 6.32866 313.386 7.28533 312.511 7.996C311.691 8.70666 310.762 9.062 309.723 9.062ZM313.003 17.18V59H306.443V17.18H313.003ZM350.884 32.268C350.665 29.5347 349.599 27.102 347.686 24.97C345.773 22.838 342.903 21.772 339.076 21.772C334.484 21.772 331.04 23.3847 328.744 26.61C326.503 29.8353 325.382 33.662 325.382 38.09C325.382 42.518 326.503 46.3447 328.744 49.57C331.04 52.7953 334.484 54.408 339.076 54.408C342.957 54.408 345.827 53.342 347.686 51.21C349.599 49.078 350.665 46.536 350.884 43.584H357.444C357.28 46.7547 356.378 49.5973 354.738 52.112C353.098 54.6267 350.911 56.5947 348.178 58.016C345.499 59.4373 342.465 60.148 339.076 60.148C335.031 60.148 331.477 59.2187 328.416 57.36C325.355 55.5013 322.977 52.9047 321.282 49.57C319.642 46.2353 318.822 42.4087 318.822 38.09C318.822 33.7713 319.642 29.9447 321.282 26.61C322.977 23.2753 325.355 20.6787 328.416 18.82C331.477 16.9613 335.031 16.032 339.076 16.032C342.465 16.032 345.472 16.7427 348.096 18.164C350.775 19.5307 352.907 21.444 354.492 23.904C356.132 26.364 357.116 29.152 357.444 32.268H350.884ZM379.875 54.408C383.593 54.408 386.435 53.5333 388.403 51.784C390.371 50.0347 391.601 48.1487 392.093 46.126H398.653C397.505 50.2807 395.346 53.67 392.175 56.294C389.059 58.8633 385.041 60.148 380.121 60.148C375.967 60.148 372.331 59.246 369.215 57.442C366.154 55.5833 363.803 52.9867 362.163 49.652C360.523 46.3173 359.703 42.4633 359.703 38.09C359.703 31.202 361.507 25.8173 365.115 21.936C368.723 18 373.616 16.032 379.793 16.032C386.244 16.032 391.109 18.1093 394.389 22.264C397.669 26.4187 399.309 32.268 399.309 39.812H366.263C366.263 42.436 366.783 44.8687 367.821 47.11C368.86 49.2967 370.391 51.0733 372.413 52.44C374.491 53.752 376.978 54.408 379.875 54.408ZM379.793 21.772C377.224 21.772 374.901 22.3187 372.823 23.412C370.801 24.5053 369.188 26.0087 367.985 27.922C366.837 29.7807 366.263 31.8307 366.263 34.072H392.749C392.749 31.8307 392.203 29.7807 391.109 27.922C390.071 26.0087 388.567 24.5053 386.599 23.412C384.631 22.3187 382.363 21.772 379.793 21.772ZM424.664 16.032C428.764 16.032 432.126 17.2073 434.75 19.558C437.374 21.854 438.686 25.2707 438.686 29.808V59H432.126V31.448C432.126 28.5507 431.388 26.2273 429.912 24.478C428.436 22.674 426.14 21.772 423.024 21.772C419.361 21.772 416.382 22.8107 414.086 24.888C411.845 26.9653 410.724 29.644 410.724 32.924V59H404.164V17.18H410.724V22.182H410.888C412.2 20.4327 414.004 18.984 416.3 17.836C418.596 16.6333 421.384 16.032 424.664 16.032ZM409.986 7.914C409.986 5.34467 410.56 3.43133 411.708 2.174C412.911 0.861999 414.359 0.205999 416.054 0.205999C417.038 0.205999 417.995 0.369999 418.924 0.697998C419.908 0.971331 421.083 1.40866 422.45 2.01C422.778 2.11933 423.325 2.338 424.09 2.666C424.91 2.994 425.566 3.158 426.058 3.158C427.315 3.158 427.944 2.22866 427.944 0.369997H432.864C432.864 2.994 432.263 4.93466 431.06 6.192C429.912 7.44933 428.491 8.078 426.796 8.078C425.812 8.078 424.828 7.94133 423.844 7.668C422.915 7.34 421.767 6.87533 420.4 6.274C420.072 6.16466 419.498 5.946 418.678 5.618C417.913 5.29 417.284 5.126 416.792 5.126C415.535 5.126 414.906 6.05533 414.906 7.914H409.986ZM463.968 60.148C468.123 60.148 471.731 59.2187 474.792 57.36C477.908 55.5013 480.286 52.9047 481.926 49.57C483.566 46.2353 484.386 42.4087 484.386 38.09C484.386 33.7713 483.566 29.9447 481.926 26.61C480.286 23.2753 477.908 20.6787 474.792 18.82C471.731 16.9613 468.123 16.032 463.968 16.032C459.759 16.032 456.096 16.9613 452.98 18.82C449.919 20.6787 447.568 23.2753 445.928 26.61C444.288 29.9447 443.468 33.7713 443.468 38.09C443.468 42.4087 444.288 46.2353 445.928 49.57C447.568 52.9047 449.919 55.5013 452.98 57.36C456.096 59.2187 459.759 60.148 463.968 60.148ZM463.968 54.408C459.486 54.408 456.042 52.8773 453.636 49.816C451.231 46.7547 450.028 42.846 450.028 38.09C450.028 33.334 451.231 29.4253 453.636 26.364C456.042 23.3027 459.486 21.772 463.968 21.772C468.451 21.772 471.868 23.3027 474.218 26.364C476.624 29.4253 477.826 33.334 477.826 38.09C477.826 42.846 476.624 46.7547 474.218 49.816C471.868 52.8773 468.451 54.408 463.968 54.408ZM481.719 4.224V0.369997H501.071V4.224H493.691V23.002H489.099V4.224H481.719ZM510.665 0.369997L515.749 17.426H515.831L520.997 0.369997H527.639V23.002H523.375V5.864H523.211L517.963 23.002H513.617L508.451 5.864H508.287V23.002H504.105V0.369997H510.665Z" fill="#F8F8F8"/>
</svg>
